<svg xmlns="http://www.w3.org/2000/svg" xmlns:xlink="http://www.w3.org/1999/xlink" fill="none" version="1.1" width="73" height="73" viewBox="0 0 73 73"><defs><clipPath id="master_svg0_6_97"><rect x="0" y="0" width="73" height="73" rx="0"/></clipPath></defs><g clip-path="url(#master_svg0_6_97)"><g><path d="M0,0C24.09,0,48.18,0,73,0C73,24.09,73,48.18,73,73C48.91,73,24.82,73,0,73C0,48.91,0,24.82,0,0Z" fill="#FE6F3D" fill-opacity="1" style="mix-blend-mode:passthrough"/></g><g><path d="M52.0766927734375,21.092658193359377C56.1430927734375,24.623658193359375,58.6999927734375,29.840648193359375,59.1253927734375,35.194548193359374C59.5042927734375,40.869848193359374,57.9717927734375,46.610648193359374,54.2041927734375,50.979448193359374C54.1019927734375,51.09454819335937,53.9997927734375,51.209548193359375,53.8944927734375,51.328148193359375C53.7923927734375,51.449048193359374,53.6901927734375,51.570048193359376,53.5848927734375,51.69464819335938C52.8161927734375,52.58594819335938,51.9783927734375,53.32484819335937,51.0429927734375,54.03714819335938C50.9685927734375,54.094448193359376,50.8941927734375,54.15184819335938,50.8174927734375,54.210848193359375C46.1917927734375,57.751048193359374,40.3886927734375,59.15164819335938,34.6186927734375,58.533848193359376C29.0760927734375,57.77174819335937,23.7619727734375,54.76514819335937,20.3240027734375,50.34904819335937C16.7545047734375,45.63094819335937,15.2136727734375,39.98424819335938,15.9709837734375,34.09344819335938C16.5068857734375,30.398148193359376,17.8477027734375,26.845548193359377,20.2461027734375,23.953128193359376C20.3401827734375,23.837958193359377,20.3401827734375,23.837958193359377,20.436162773437502,23.720468193359373C22.1528027734375,21.621268193359377,24.0310127734375,19.909428193359375,26.3769927734375,18.535158193359376C26.4590927734375,18.486128193359374,26.5411927734375,18.437108193359375,26.6258927734375,18.386598193359376C34.8598927734375,13.528928193359375,44.9455927734375,15.077986193359376,52.0766927734375,21.092658193359377Z" fill="#0D3133" fill-opacity="1" style="mix-blend-mode:passthrough"/></g><g><path d="M50.027078125,21.3243558203125C50.271978125000004,21.5337558203125,50.515578125,21.7446158203125,50.757778125,21.9570458203125C50.875778125,22.0561058203125,50.993778125,22.1551658203125,51.115378125,22.257235820312502C54.754278125,25.3884758203125,57.065878125,30.0330158203125,57.601578125,34.7891158203125C57.631678125,35.4670158203125,57.628978125,36.1424158203125,57.619378125,36.820815820312504C57.618078125,36.9967158203125,57.616778125,37.1726158203125,57.615478125,37.353815820312505C57.612178125,37.7821158203125,57.607478125,38.210415820312505,57.601578125,38.6387158203125C57.554478125,38.6387158203125,57.507478125,38.6387158203125,57.458978125,38.6387158203125C57.440478125,38.359115820312496,57.440478125,38.359115820312496,57.421678125,38.0739158203125C57.221478125,35.3978158203125,56.640478125,33.1384158203125,55.320278125,30.7969158203125C55.242778125,30.6565158203125,55.165178125,30.5160158203125,55.085278125,30.3714158203125C54.620178125,29.5864158203125,54.066378125,28.8887158203125,53.466778125,28.2037158203125C53.397478125,28.1214158203125,53.328178125,28.0390158203125,53.256678125,27.954115820312502C52.866378125,27.526315820312497,52.657878125,27.381115820312502,52.076678125,27.3054158203125C51.602078125,27.3298158203125,51.602078125,27.3298158203125,51.328078125,27.6602158203125C51.341478125,28.1550158203125,51.447478125,28.347515820312502,51.782578125,28.7156158203125C51.914878125,28.8348158203125,52.047278125,28.954115820312502,52.183578125,29.0770158203125C53.988478125,30.7927158203125,55.431078125,33.4414158203125,55.748078125,35.929715820312495C55.685678125,36.2616158203125,55.685678125,36.2616158203125,55.605478125,36.5000158203125C55.544978125,36.4189158203125,55.484578125,36.3379158203125,55.422278125,36.2544158203125C54.374178125,34.8746158203125,53.271178125,33.6976158203125,51.613278125,33.078115820312505C51.660378125,33.2193158203125,51.707378125,33.3604158203125,51.755878125,33.505915820312495C51.780678125,33.8824158203125,51.795278125,34.251915820312504,51.800378125,34.6287158203125C51.804578125,34.7296158203125,51.808678125,34.8305158203125,51.812978125,34.934415820312495C51.819278125,35.4577158203125,51.772878125,35.7594158203125,51.496878125,36.2087158203125C51.113478125,36.567415820312505,50.846178125,36.6074158203125,50.330078125,36.6426158203125C49.807178125,36.081115820312505,49.667978125000005,35.657715820312504,49.554778125,34.904915820312496C49.285078125,33.3609158203125,48.673478125,32.1237158203125,47.478478124999995,31.0820158203125C46.574378124999996,30.4611158203125,45.750778125,30.1968158203125,44.662578124999996,30.0929158203125C43.660678125000004,29.9971158203125,43.131078125,29.7115158203125,42.488278125,28.943415820312502C43.190478125,27.6347158203125,44.523378125,26.9640158203125,45.888478125,26.4994958203125C46.737378125,26.2864658203125,47.617778125,26.3323958203125,48.486178124999995,26.3655858203125C48.610178125000004,26.3702558203125,48.734178125,26.3749358203125,48.861978125,26.3797458203125C48.973178125000004,26.3857758203125,49.084478125000004,26.3918058203125,49.199078125,26.398025820312498C49.509078125,26.404405820312498,49.509078125,26.404405820312498,49.759778125,26.0918058203125C49.783578125,25.6521758203125,49.783578125,25.6521758203125,49.759778125,25.236335820312497C47.477578125,24.681885820312502,45.481178125,24.9806558203125,43.397178124999996,26.0784358203125C42.326078124999995,26.7429358203125,41.428478125,27.5705158203125,40.777378125,28.6582158203125C40.634778125,29.1572158203125,40.634778125,29.1572158203125,40.777378125,29.6562158203125C41.029378125,29.8992158203125,41.298878125,30.0812158203125,41.589978125,30.275615820312503C42.536278124999995,30.9568158203125,43.191278125,31.8108158203125,43.486378125,32.9355158203125C43.491878125,33.2206158203125,43.492778125,33.505915820312495,43.486378125,33.791015820312495C43.320878125,33.8033158203125,43.155478125,33.8156158203125,42.985078125,33.8283158203125C40.713778125000005,34.022015820312504,39.021378125,34.6218158203125,37.408978125000004,36.2950158203125C36.226878125,37.7353158203125,35.712778125,39.4902158203125,35.193978125,41.2468158203125C34.864178124999995,42.3438158203125,34.537278125,43.2952158203125,33.505878125,43.9141158203125C32.605378125,44.1254158203125,31.841678125,44.0272158203125,30.966178125,43.7715158203125C30.850078125,43.7390158203125,30.734078125,43.706515820312504,30.614478124999998,43.6730158203125C26.771898125,42.5720158203125,23.131798125,41.014315820312504,20.103518125,38.353515820312495C19.970638125,38.2396158203125,19.837748125,38.125615820312504,19.700848125,38.0082158203125C18.631451125,37.0746158203125,18.631451125,37.0746158203125,18.392578125,36.5000158203125C18.486680225,36.5000158203125,18.580782125,36.5000158203125,18.677734125,36.5000158203125C18.712104125,36.4200158203125,18.746474125,36.340115820312505,18.781883125,36.2577158203125C19.000215125,35.8620158203125,19.268858125,35.5732158203125,19.577758125,35.243515820312496C19.966238125,34.8220158203125,20.327738125,34.409615820312496,20.647098125,33.9336158203125C20.950038125,33.5181158203125,21.080568125,33.4164158203125,21.529298125,33.2207158203125C21.527058125,33.1247158203125,21.524818125,33.028615820312496,21.522508125,32.9297158203125C21.475848125,30.619015820312498,21.440738125,28.392115820312497,22.384768125,26.2343858203125C23.400458125,26.6728258203125,24.191038125,27.2246158203125,25.016338125,27.9609158203125C25.401808125,28.2475158203125,25.615828125,28.3451158203125,26.091798125,28.3730158203125C26.416918125000002,28.2974158203125,26.416918125000002,28.2974158203125,26.751218125,28.1681158203125C27.928438125,27.8118158203125,29.152778124999998,27.911315820312502,30.369178124999998,27.9453158203125C30.393378124999998,27.8453158203125,30.417678125000002,27.7453158203125,30.442678125,27.6423158203125C30.664678125000002,26.7732258203125,30.936578125,26.0232558203125,31.367178125000002,25.236335820312497C31.461278125,25.236335820312497,31.555378125,25.236335820312497,31.652378125,25.236335820312497C32.570278125,26.3021758203125,33.322478125,27.5172158203125,33.684078125,28.8810158203125C34.123578125,30.265415820312498,35.573378125000005,31.1350158203125,36.785178125,31.7949158203125C37.604278125,32.199015820312496,38.560278124999996,32.6128158203125,39.494178125000005,32.5078158203125C39.768178125,32.3541158203125,39.768178125,32.3541158203125,39.921878125,32.0801158203125C39.888978125,31.701615820312497,39.888978125,31.701615820312497,39.779278125000005,31.367215820312502C39.632778125,31.3273158203125,39.486378125,31.2874158203125,39.335378125,31.2463158203125C37.818478125,30.8147158203125,36.196478125,30.2598158203125,35.216778125000005,28.943415820312502C35.097278125,28.6054158203125,35.004378125,28.2650158203125,34.912178125,27.9186158203125C34.519278125,26.638615820312502,33.814378125,25.522235820312503,32.935578125,24.5234458203125C32.839278125,24.4137258203125,32.742978125,24.3039958203125,32.643678125,24.1909558203125C32.133878125,23.5973558203125,32.133878125,23.5973558203125,31.433978125,23.3198858203125C30.854578125,23.4234958203125,30.680278125,23.790545820312502,30.347378125,24.2477558203125C29.861578125,25.0192158203125,29.471978125,25.8372458203125,29.085978125,26.6621158203125C26.327388125,26.960315820312502,26.327388125,26.960315820312502,25.505338125,26.622015820312498C25.200418125,26.3678358203125,24.937778125,26.095545820312502,24.666018125,25.8066558203125C23.816228125000002,25.2227658203125,22.909078125,24.7718058203125,21.957028125,24.3808658203125C23.031328125,21.6067358203125,27.294118125,19.5005758203125,29.798778125,18.3925858203125C36.553278125,15.7089258203125,44.346878125,16.7515278203125,50.027078125,21.3243558203125Z" fill="#F9B96F" fill-opacity="1" style="mix-blend-mode:passthrough"/></g><g><path d="M43.771475234375,29.941407891953126C45.436935234375,29.880845651953123,46.708365234375,30.266536251953124,47.971365234375,31.395033251953127C49.136465234375,32.596753251953125,49.641565234375,33.911183251953126,49.823265234375,35.55987325195312C49.911165234375,35.97105325195312,50.056165234375,36.18610325195313,50.330065234375,36.500003251953125C50.926465234375,36.452103251953126,50.926465234375,36.452103251953126,51.426165234375,36.15246325195312C51.718065234375004,35.58261325195313,51.658165234375,35.02665325195312,51.639965234375,34.39697325195313C51.638065234375,34.27034325195312,51.636165234375,34.14371325195312,51.634165234375004,34.01324325195313C51.629165234375,33.70144325195312,51.622065234375,33.38983325195313,51.613265234375,33.07812325195312C53.278265234375,33.59190325195313,54.436465234375,34.75503325195312,55.534165234374996,36.072263251953125C56.614465234375004,38.23291325195312,56.132065234375,41.44203325195313,55.421665234375,43.66173325195312C54.641565234375,45.918033251953126,53.459665234374995,48.05943325195312,51.613265234375,49.617233251953124C51.519165234375,49.617233251953124,51.425065234375,49.617233251953124,51.328165234375,49.617233251953124C51.292865234375,49.50843325195312,51.257565234375,49.39953325195313,51.221165234375,49.287433251953125C51.018065234375,48.85083325195313,50.905265234375,48.687033251953125,50.472665234375,48.47653325195313C49.692365234375,48.490733251953124,49.341265234375,48.694733251953124,48.761665234375,49.189433251953126C47.220265234375,50.159233251953125,45.415965234375,50.40743325195312,43.655635234375,50.03603325195313C42.037105234375,49.586833251953124,40.782065234375,48.70493325195312,39.545375234375,47.60993325195312C38.957175234375,47.09043325195313,38.335295234375,46.615333251953125,37.710825234375,46.140633251953126C37.072023234375,45.648333251953126,36.751716234375,45.288733251953126,36.642572034375,44.484333251953124C36.548779434375,42.96843325195312,36.573163234375,41.511933251953124,37.070306234375,40.064433251953126C37.120481234375,39.90915325195313,37.170657234375,39.75384325195313,37.222352234375,39.59383325195313C37.575863234375,38.58230325195312,38.004455234375,37.684953251953125,38.781245234375,36.92773325195313C38.875345234375,36.92773325195313,38.969445234375,36.92773325195313,39.066395234375,36.92773325195313C39.113455234375,36.786583251953125,39.160505234375,36.64543325195312,39.208975234375,36.500003251953125C40.519585234375,35.48329325195313,41.987995234375,35.06807325195312,43.628895234375,35.216803251953124C44.021695234375,35.289403251953125,44.386255234375,35.38625325195312,44.769525234374996,35.501953251953125C45.172725234375,33.38517325195313,44.859985234375,31.761333251953126,43.771475234375,29.941407891953126Z" fill="#FA4032" fill-opacity="1" style="mix-blend-mode:passthrough"/></g><g><path d="M18.5351444609375,39.208984375C19.0115534609375,39.419641375,19.3492364609375,39.693510375,19.7381524609375,40.037719375C22.8635824609375,42.621414375,27.415902460937502,44.964614375,31.5453724609375,45.108154375C34.2593724609375,45.296534375,36.1428724609375,46.578354375,38.117872460937505,48.328974375C40.3005724609375,50.253084375,42.6202724609375,51.717784375,45.6316724609375,51.648884375C46.908672460937495,51.540784375,48.065172460937504,51.256884375,49.1771724609375,50.613584375C49.4745724609375,50.472684375,49.4745724609375,50.472684375,50.0448724609375,50.472684375C50.0526724609375,50.790484375,50.0581724609375,51.108284375,50.062772460937495,51.426184375C50.066072460937505,51.603184375,50.0693724609375,51.780084375,50.0727724609375,51.962484375C50.045072460937504,52.466584375,50.0166724609375,52.750484375,49.7597724609375,53.181684375C49.456172460937495,53.436684375,49.1733724609375,53.647084375,48.841872460937495,53.858884375C48.747572460937505,53.919984375,48.6531724609375,53.980984375,48.5559724609375,54.043884375C44.0643724609375,56.871884375,38.4830724609375,57.903084375,33.2841724609375,56.791184375C28.1231424609375,55.588184375,23.3628824609375,52.605384375,20.5041524609375,48.064494375C19.4606624609375,46.348464375,18.4040970609375,44.540694375,18.3925666609375,42.488284375C18.3888908109375,42.336834375,18.3852149609375,42.185394375,18.3814277409375,42.029354375C18.3681191609375,41.080014375,18.4160925609375,40.150772375,18.5351444609375,39.208984375Z" fill="#FC4A31" fill-opacity="1" style="mix-blend-mode:passthrough"/></g><g><path d="M31.367178125000002,25.236328125C31.461278125,25.236328125,31.555378125,25.236328125,31.652378125,25.236328125C32.570278125,26.302168125,33.322478125,27.517198125,33.684078125,28.880978125C34.123078125,30.263898125,35.573178125,31.137548125000002,36.785178125,31.794918125C37.616378125,32.188418125,38.455278125,32.451218125,39.351578125,32.650388125C39.287478125,32.837958125,39.221878125,33.024998124999996,39.155478125,33.211788125C39.119178125000005,33.315998125,39.082778125000004,33.420208125,39.045278124999996,33.527578125C38.923778125,33.791018125,38.923778125,33.791018125,38.638678125,33.933598125C38.447578125,33.890368125,38.257478125,33.842288124999996,38.068378124999995,33.791018125C36.103378125,33.689948125,34.272278125,33.884558125,32.365278125,34.361328125C32.365278125,34.784788125,32.365278125,35.208238125,32.365278125,35.644528125C32.647578125,35.691628125,32.929878125,35.738628125,33.220678125,35.787128125C33.507478125,35.422128125,33.738078125,35.067678125,33.933578125,34.646488125C34.168878125,34.693538125,34.404078125,34.740588125,34.646478125,34.789058125C34.718478125000004,35.544528125,34.555978124999996,35.916428124999996,34.076178125,36.500028125C33.537078125,36.925628125,33.180278125,36.944428125,32.507778125,36.927728125C32.644278125,37.385228125,32.780978125000004,37.842628125,32.917678125,38.300028125C32.956178125,38.428928125,32.994578125000004,38.557728125,33.034078125,38.690428125C33.142878124999996,39.053728125,33.252778125,39.416628125,33.363278125,39.779328125C33.413278125,39.943828124999996,33.463278125,40.108328125,33.514778125,40.277728124999996C33.633678125,40.658828125,33.633678125,40.658828125,33.951378125,40.982328125C34.218778125,41.347628125,34.218778125,41.347628125,34.298978125,41.837728125C34.218778125,42.345828125,34.104078125,42.656628125,33.746478124999996,43.033528125000004C33.275078125,43.361928125,32.784678125,43.422728125,32.222678125,43.343728125C31.777178125,43.106628125,31.453378125,42.803128125,31.224578125,42.345728125C31.193778125,41.883028124999996,31.185378125,41.571928125,31.387978125,41.150228125C31.547778125,40.781828125000004,31.547778125,40.781828125000004,31.403178125,40.427028125C31.337278124999997,40.306128125,31.271378125,40.185128125,31.203478125,40.060528125C31.131178124999998,39.924928125,31.058878125,39.789328125,30.984378125,39.649628125C30.904878125,39.507228125,30.825378125,39.364728125,30.743378125,39.217928125C30.664078125,39.071928125,30.584778125,38.925928125,30.502978125,38.775528125C30.343678125,38.483428125,30.183278125,38.191928125000004,30.021578124999998,37.901028124999996C29.829778125,37.554128125,29.643578124999998,37.205128125,29.460178125,36.853628125C29.365378125,36.676228125,29.270278125,36.498928125,29.175078125,36.321728125C29.094578124999998,36.171028125,29.014078124999997,36.020328125,28.931078125,35.865128125C28.579778125,35.397628125,28.364148125,35.249128125,27.802738124999998,35.074218125C26.469628125,35.017748125,25.073388125,35.425828125,23.773408125,35.691428125C23.393228125,35.769028125,23.012808125,35.845228125,22.632328125,35.921328125C21.458948125,36.157528125,20.292278125,36.401628125,19.135787125,36.712228124999996C18.820312125,36.785128125,18.820312125,36.785128125,18.392578125,36.785128125C18.392578125,36.691028125,18.392578125,36.596928125,18.392578125,36.500028125C18.486680225,36.500028125,18.580781125,36.500028125,18.677734125,36.500028125C18.729288125,36.380028125,18.729288125,36.380028125,18.781883125,36.257728125C19.000215125,35.862028125,19.268858125,35.573228125,19.577758125,35.243528125C19.966238125,34.822058125,20.327738125,34.409638125,20.647098125,33.933598125C20.950038125,33.518138125,21.080568125,33.416378125,21.529298125,33.220708125C21.527058125,33.124668125,21.524818125,33.028638125,21.522508125,32.929698125C21.475848125,30.618958125,21.440738125,28.392148125,22.384768125,26.234375125C23.400458125,26.672818125,24.191038125,27.224608125,25.016338125,27.960908125C25.401818125,28.247498125,25.615828125,28.345138125,26.091798125,28.373048125C26.416908125,28.297398125,26.416908125,28.297398125,26.751218125,28.168088125C27.928438125,27.811848125,29.152778124999998,27.911278125,30.369178124999998,27.945308125C30.393378124999998,27.845328125,30.417678125000002,27.745348125,30.442678125,27.642338125000002C30.664678125000002,26.773218125,30.936578125,26.023244125,31.367178125000002,25.236328125Z" fill="#F94D31" fill-opacity="1" style="mix-blend-mode:passthrough"/></g><g><path d="M49.7686619140625,25.28089706933594C49.9023619140625,25.521498069335937,49.9023619140625,25.521498069335937,49.8755619140625,25.886851069335936C49.7597619140625,26.23439106933594,49.7597619140625,26.23439106933594,49.4745619140625,26.519541069335936C49.1990619140625,26.54060106933594,49.1990619140625,26.54060106933594,48.8619619140625,26.522331069335937C48.7379619140625,26.517641069335937,48.6139619140625,26.512951069335937,48.4862619140625,26.50813106933594C48.3536619140625,26.503071069335938,48.2210619140625,26.498021069335937,48.0844619140625,26.492811069335936C46.0680619140625,26.45858106933594,44.4311619140625,26.961721069335937,42.916061914062496,28.373061069335936C42.731561914062496,28.67498106933594,42.731561914062496,28.67498106933594,42.6308619140625,28.94337106933594C42.713561914062495,29.009171069335938,42.7962619140625,29.074971069335938,42.8814619140625,29.142761069335936C43.9566619140625,30.040531069335938,44.818461914062496,31.09042106933594,45.0546619140625,32.50782106933594C45.1111619140625,33.543491069335936,45.1422619140625,34.52355106933594,44.7695619140625,35.50197106933594C44.613661914062504,35.47847106933594,44.457861914062505,35.45487106933594,44.2972619140625,35.430671069335936C42.5409619140625,35.223871069335935,40.965961914062504,35.41597106933594,39.4668619140625,36.43207106933593C38.3259619140625,37.36357106933594,37.666461914062495,38.548371069335936,37.2574619140625,39.93967106933594C37.227261914062495,40.03807106933594,37.1969619140625,40.13637106933594,37.1658619140625,40.23767106933594C36.8661619140625,41.226471069335936,36.7592619140625,42.08517106933594,36.7584619140625,43.11207106933594C36.756661914062505,43.229671069335936,36.7549619140625,43.347371069335935,36.7531619140625,43.46847106933593C36.7327619140625,44.67337106933594,36.7327619140625,44.67337106933594,37.275461914062504,45.70797106933594C37.542761914062496,45.94407106933593,37.8185619140625,46.15977106933594,38.103961914062495,46.37357106933594C38.2060619140625,46.452671069335935,38.308161914062495,46.53177106933594,38.4132619140625,46.61337106933594C38.6234619140625,46.776271069335934,38.8343619140625,46.938371069335936,39.0458619140625,47.09957106933594C39.329561914062495,47.31897106933594,39.6061619140625,47.544271069335934,39.8812619140625,47.77427106933594C41.5300619140625,49.14307106933594,43.332861914062505,50.135071069335936,45.529761914062505,50.08057106933594C46.9262619140625,49.94977106933594,48.3663619140625,49.50567106933594,49.4300619140625,48.565671069335934C49.7597619140625,48.33397106933594,49.7597619140625,48.33397106933594,50.2676619140625,48.33397106933594C50.7948619140625,48.487371069335936,51.0110619140625,48.602971069335936,51.3281619140625,49.046871069335936C51.3281619140625,49.23507106933594,51.3281619140625,49.42327106933594,51.3281619140625,49.61717106933594C51.4441619140625,49.51407106933594,51.4441619140625,49.51407106933594,51.5625619140625,49.40887106933594C51.6645619140625,49.31887106933594,51.7665619140625,49.228771069335934,51.8716619140625,49.13597106933594C51.9725619140625,49.046671069335936,52.0734619140625,48.957371069335935,52.1774619140625,48.865371069335936C52.4687619140625,48.619171069335934,52.4687619140625,48.619171069335934,52.8964619140625,48.33397106933594C52.6994619140625,48.79587106933594,52.4848619140625,49.02357106933594,52.0944619140625,49.33207106933594C51.7314619140625,49.67497106933594,51.6207619140625,49.822971069335935,51.5731619140625,50.327271069335936C51.5878619140625,50.629071069335936,51.6043619140625,50.93077106933593,51.6227619140625,51.23237106933594C51.6132619140625,51.61327106933594,51.6132619140625,51.61327106933594,51.3013619140625,51.96087106933594C51.1690619140625,52.03437106933593,51.0367619140625,52.10787106933594,50.9003619140625,52.18357106933594C50.7107619140625,52.37767106933594,50.7107619140625,52.37767106933594,50.5172619140625,52.57567106933594C50.1874619140625,52.89647106933594,50.1874619140625,52.89647106933594,49.9023619140625,52.89647106933594C49.9023619140625,52.09667106933594,49.9023619140625,51.29677106933593,49.9023619140625,50.47267106933594C49.2138619140625,50.72977106933594,49.2138619140625,50.72977106933594,48.6993619140625,51.03407106933594C46.761761914062504,52.01017106933594,44.5148619140625,51.95427106933594,42.488261914062505,51.32817106933594C40.8687619140625,50.713371069335935,39.620061914062504,49.776271069335934,38.353561914062496,48.619171069335934C36.3645619140625,46.82867106933594,34.3356619140625,45.40667106933594,31.5543619140625,45.27747106933594C27.9293619140625,45.091771069335934,24.3341219140625,43.319371069335936,21.3510719140625,41.35657106933594C21.2500419140625,41.29017106933594,21.1490219140625,41.22377106933594,21.044931914062502,41.15537106933594C20.154081914062502,40.554571069335935,19.3775419140625,39.898271069335934,18.5351519140625,39.20897106933594C18.5351519140625,40.667571069335935,18.5351519140625,42.12617106933594,18.5351519140625,43.628871069335936C17.4702819140625,42.209071069335934,17.4342019140625,40.041071069335935,17.3499719140625,38.317871069335936C17.3303019140625,37.952271069335936,17.3303019140625,37.952271069335936,17.2519529140625,37.64067106933594C16.9211429140625,37.32267106933594,16.9211429140625,37.32267106933594,16.5390629140625,37.21287106933594C16.3964844140625,37.070371069335934,16.3964844140625,37.070371069335934,16.2984619140625,36.63367106933594C16.4341909140625,35.856371069335935,16.8296059140625,35.65617106933594,17.4546819140625,35.21567106933594C17.8376019140625,34.91977106933594,18.0927619140625,34.595491069335935,18.3925819140625,34.21876106933594C18.4866819140625,34.21876106933594,18.5807819140625,34.21876106933594,18.677731914062498,34.21876106933594C18.7218419140625,34.13054106933593,18.7659519140625,34.04232106933594,18.8114019140625,33.95143106933594C18.9094219140625,33.75538106933594,19.0074419140625,33.559341069335936,19.1054719140625,33.363291069335936C19.1995719140625,33.363291069335936,19.2936719140625,33.363291069335936,19.3906219140625,33.363291069335936C19.4376719140625,33.22214106933593,19.4847319140625,33.08099106933594,19.5332019140625,32.93556106933594C19.8718219140625,32.91774106933594,19.8718219140625,32.91774106933594,20.2460919140625,32.93556106933594C20.3401919140625,33.02966106933594,20.4343019140625,33.12376106933594,20.5312519140625,33.22072106933594C20.8996019140625,33.244511069335935,20.8996019140625,33.244511069335935,21.2441419140625,33.22072106933594C21.3382419140625,32.891361069335936,21.4323419140625,32.562001069335935,21.5292919140625,32.22267106933594C21.5763519140625,32.22267106933594,21.623401914062498,32.22267106933594,21.6718719140625,32.22267106933594C21.7164319140625,32.69496106933594,21.7164319140625,32.69496106933594,21.6718719140625,33.22072106933594C21.435521914062498,33.36540106933594,21.1976519140625,33.50762106933594,20.958981914062498,33.648451069335934C20.6339519140625,34.02580106933594,20.6339519140625,34.02580106933594,20.3352019140625,34.45936106933594C19.2253619140625,35.98427106933594,19.2253619140625,35.98427106933594,18.677731914062498,36.49997106933594C18.5836319140625,36.49997106933594,18.4895319140625,36.49997106933594,18.3925819140625,36.49997106933594C21.521301914062498,40.44397106933594,27.4885619140625,43.29677106933593,32.4186619140625,43.92297106933594C33.0285619140625,43.94877106933593,33.430161914062495,43.854671069335936,33.9335619140625,43.48637106933594C34.7465619140625,42.72117106933594,34.9722619140625,41.530571069335934,35.2969619140625,40.497171069335934C36.1323619140625,37.86547106933594,37.0966619140625,35.80557106933594,39.631661914062505,34.42427106933594C40.9098619140625,33.81725106933594,42.0834619140625,33.730811069335935,43.4863619140625,33.791031069335936C43.167161914062504,32.11146106933594,42.5606619140625,31.114661069335938,41.2050619140625,30.084001069335937C41.0903619140625,30.016361069335936,40.9756619140625,29.94873106933594,40.8575619140625,29.879041069335937C40.6347619140625,29.656261069335937,40.6347619140625,29.656261069335937,40.536761914062495,29.210711069335936C40.7588619140625,27.958811069335937,41.9209619140625,26.958171069335936,42.916061914062496,26.23439106933594C44.7716619140625,25.114691069335937,47.7192619140625,23.976721069335937,49.7686619140625,25.28089706933594Z" fill="#6E1A2B" fill-opacity="1" style="mix-blend-mode:passthrough"/></g><g><path d="M36.758456249999995,33.63060760757813C36.87885625,33.63005622757812,36.999356250000005,33.629504851578126,37.123456250000004,33.628936767578125C37.29705625,33.62921245557813,37.29705625,33.62921245557813,37.474056250000004,33.62949371357813C37.57805625,33.629654531578126,37.68205625,33.629815349578124,37.78925625,33.629981037578126C38.06835625,33.64842986757812,38.06835625,33.64842986757812,38.496056249999995,33.79100776757812C38.63865625,34.21874276757813,38.63865625,34.21874276757813,38.49555625,34.599693767578124C37.82345625,35.92696676757812,37.82345625,35.92696676757812,37.36435625,36.410876767578124C36.15865625,37.738716767578126,35.689556249999995,39.568426767578124,35.19405625,41.246776767578126C34.86415625,42.343816767578126,34.53725625,43.295196767578126,33.50585625,43.914036767578125C32.60545625,44.12543676757812,31.84165625,44.027236767578124,30.966156249999997,43.77143676757812C30.850156249999998,43.73903676757813,30.734056250000002,43.70653676757813,30.61445625,43.673036767578125C26.77409625,42.572636767578125,23.128106250000002,41.01625676757813,20.10351625,38.353506767578125C19.96897625,38.23624676757812,19.83444625,38.11898676757812,19.69583625,37.99817676757812C18.70255025,37.119936767578125,18.70255025,37.119936767578125,18.53515625,36.78514676757813C20.249826249999998,36.281026767578126,21.96785625,35.864516767578124,23.72223625,35.52331676757812C24.10922625,35.44757676757813,24.495496250000002,35.36871676757813,24.88183625,35.28974676757812C25.13232625,35.240366767578124,25.38285625,35.19115676757812,25.63342625,35.14215676757812C25.74662625,35.118706767578125,25.85981625,35.09525676757813,25.976446250000002,35.071096767578126C26.73874625,34.926956767578126,27.47070625,34.882746767578126,28.23046625,35.074206767578126C29.02655625,35.68826676757813,29.43795625,36.591436767578124,29.907956249999998,37.46009676757812C30.107656249999998,37.826666767578125,30.31215625,38.19041676757813,30.51615625,38.55456676757812C30.66345625,38.823066767578126,30.81045625,39.091706767578124,30.95725625,39.360466767578124C31.029956249999998,39.48939676757813,31.102656250000003,39.618326767578125,31.17765625,39.75116676757813C31.24345625,39.87384676757812,31.30935625,39.996526767578125,31.377256250000002,40.12292676757812C31.43715625,40.23192676757812,31.49705625,40.340926767578125,31.558856249999998,40.45322676757812C31.68445625,40.88859676757812,31.55825625,41.089296767578126,31.36715625,41.49022676757812C31.296856249999998,42.05263676757812,31.31665625,42.26984676757812,31.63455625,42.74669676757813C32.00685625,43.13138676757812,32.00685625,43.13138676757812,32.51115625,43.208966767578126C33.09005625,43.164726767578124,33.414556250000004,43.134266767578126,33.87125625,42.75560676757813C34.13465625,42.22874676757812,34.168156249999996,41.93047676757813,34.07615625,41.34764676757813C33.96665625,41.23057676757813,33.85705625,41.11349676757813,33.74425625,40.992876767578124C33.19945625,40.37019676757812,33.07635625,39.60450676757812,32.89095625,38.816886767578126C32.83465625,38.591646767578126,32.83465625,38.591646767578126,32.77705625,38.36186676757812C32.50785625,37.272136767578125,32.50785625,37.272136767578125,32.50785625,36.92772676757812C32.59385625,36.91541676757812,32.67985625,36.90309676757813,32.76845625,36.890416767578124C33.53765625,36.756666767578125,33.53765625,36.756666767578125,34.14745625,36.286126767578125C34.47735625,35.736276767578126,34.51785625,35.432906767578125,34.50395625,34.789056767578124C34.31565625,34.789056767578124,34.12745625,34.789056767578124,33.93355625,34.789056767578124C33.86885625,34.92432676757812,33.80415625,35.05959676757813,33.73755625,35.19896676757813C33.50585625,35.64452676757813,33.50585625,35.64452676757813,33.22065625,35.92967676757812C32.42675625,35.84866676757812,32.42675625,35.84866676757812,32.22265625,35.64452676757813C32.155556250000004,34.73805676757812,32.155556250000004,34.73805676757812,32.39255625,34.414787767578126C32.71545625,34.169290767578126,32.99755625,34.087802767578125,33.39005625,33.98705276757813C33.51845625,33.95286776757813,33.64695625,33.918682767578126,33.77935625,33.88346076757813C34.77755625,33.67343596757812,35.742056250000005,33.62584725757812,36.758456249999995,33.63060760757813Z" fill="#F9CC91" fill-opacity="1" style="mix-blend-mode:passthrough"/></g><g><path d="M18.5351444609375,39.208984375C19.0278634609375,39.431168375,19.4295024609375,39.722280375,19.8539924609375,40.055542375C19.9811724609375,40.153871375,20.1083624609375,40.252204375,20.2394024609375,40.353504375C20.3357024609375,40.446324375,20.4320124609375,40.539134375,20.5312424609375,40.634764375C20.5312424609375,40.775914375,20.5312424609375,40.917074375,20.5312424609375,41.062504375C20.672392460937502,41.109554375,20.8135424609375,41.156604375,20.9589724609375,41.205074375C21.2930624609375,41.774454375,21.4951524609375,42.356044375,21.6807724609375,42.987304375C21.818042460937498,43.450364375,21.9551824609375,43.908894375,22.1168624609375,44.364074375C22.2421724609375,44.769534375,22.2421724609375,44.769534375,22.2421724609375,45.339844375C22.3362824609375,45.339844375,22.4303824609375,45.339844375,22.5273324609375,45.339844375C22.7222624609375,45.626674375,22.7222624609375,45.626674375,22.9372424609375,46.008174375C23.2424224609375,46.537004375,23.5677724609375,47.004244375,23.9531124609375,47.478514375C23.9531124609375,47.572614375,23.9531124609375,47.666724375,23.9531124609375,47.763674375C24.0942624609375,47.810724375,24.2354224609375,47.857774375,24.3808524609375,47.906254375C24.5546124609375,48.124574375,24.5546124609375,48.124574375,24.7372924609375,48.405274375C25.3032424609375,49.193364375,26.046632460937502,49.736384375,26.8046724609375,50.330084375C26.9478924609375,50.457084375,27.0906224609375,50.584684375,27.2324124609375,50.713284375C27.7375624609375,51.102684375,28.2663724609375,51.390984375,28.829772460937498,51.687884374999996C29.1846724609375,51.875284375,29.5316724609375,52.071884374999996,29.8789724609375,52.272684375C32.1790724609375,53.541984375,35.0665724609375,54.306784375,37.6939724609375,54.343784375C38.8069724609375,54.363584375,39.3553724609375,54.559184375,40.1630724609375,55.319184375C40.8589724609375,55.924484375,41.7386724609375,56.155684375,42.630872460937496,56.318384375C42.630872460937496,56.412484375,42.630872460937496,56.506584375,42.630872460937496,56.603484375C42.2566724609375,56.672484374999996,41.8824724609375,56.740684375,41.5080724609375,56.808484375C41.352572460937495,56.837284374999996,41.352572460937495,56.837284374999996,41.1939724609375,56.866684375C35.6346724609375,57.866384374999996,30.204672460937502,56.555584374999995,25.5660324609375,53.377684375C22.4903124609375,51.185484375,19.2338434609375,47.466284375,18.4516029609375,43.648954375C18.4099389609375,43.259344375,18.3947676609375,42.880054375,18.3925666609375,42.488284375C18.3888908109375,42.336834375,18.3852149609375,42.185394375,18.3814277409375,42.029354375C18.3681191609375,41.080014375,18.4160925609375,40.150772375,18.5351444609375,39.208984375Z" fill="#F42A34" fill-opacity="1" style="mix-blend-mode:passthrough"/></g><g><path d="M49.90234125,25.37890625C50.45090125,25.45934825,50.816841249999996,25.61176525,51.27466125,25.92248525C51.38236125,25.99398025,51.49006125,26.06547525,51.60103125,26.13913725C51.90782125,26.38445625,52.115531250000004,26.61653625,52.32617125,26.94726625C52.32617125,27.04136625,52.32617125,27.13546625,52.32617125,27.23242625C52.04387125,27.32652625,51.76156125,27.42062625,51.47070125,27.51757625C51.33030125,27.83365625,51.33030125,27.83365625,51.32812125,28.23046625C51.57616125,28.52451625,51.80774125,28.75520625,52.09448125,29.005736249999998C53.945781249999996,30.74453625,55.42368125,33.38324625,55.74808125,35.92970625C55.68568125,36.26160625,55.68568125,36.26160625,55.60548125,36.50000625C55.54498125,36.41890625,55.48458125,36.33790625,55.42228125,36.25440625C54.37418125,34.87462625,53.27118125,33.69764625,51.61328125,33.07812625C51.66033125,33.21927625,51.70738125,33.36042625,51.75586125,33.50585625C51.78066125,33.88242625,51.79532125,34.25189625,51.800411249999996,34.62866625C51.80662125,34.78001625,51.80662125,34.78001625,51.81295125,34.93442625C51.81928125,35.45770625,51.77286125,35.75940625,51.49688125,36.20870625C51.11351125,36.56740625,50.846191250000004,36.60740625,50.33008125,36.64260625C49.807151250000004,36.08110625,49.66793125,35.657706250000004,49.55481125,34.904906249999996C49.28509125,33.36093625,48.673531249999996,32.12368625,47.47851125,31.08202625C46.57434125,30.461076249999998,45.75077125,30.19683625,44.66260125,30.09289625C43.66072125,29.99713625,43.13112125,29.71148625,42.48828125,28.94335625C43.19050325,27.63467625,44.52338125,26.96405625,45.88843125,26.49947625C46.73737125,26.28645225,47.61775125,26.33238525,48.48620125,26.36557025C48.672211250000004,26.37258325,48.672211250000004,26.37258325,48.861971249999996,26.37973625C48.97321125,26.38576625,49.08445125,26.39179625,49.19906125,26.39801625C49.50906125,26.40439625,49.50906125,26.40439625,49.75976125,26.09179725C49.85211125,25.72528325,49.85211125,25.72528325,49.90234125,25.37890625Z" fill="#FBF8DA" fill-opacity="1" style="mix-blend-mode:passthrough"/></g><g><path d="M31.017425625,45.037994384765625C33.967860625,45.26107638476562,35.947330625,46.405004384765626,38.117930625,48.328984384765626C40.300630625,50.25312438476563,42.620240625,51.717774384765626,45.631640625,51.64894438476563C46.908640625000004,51.540834384765624,48.065240625,51.256874384765624,49.177240624999996,50.61357438476563C49.474640625,50.472674384765625,49.474640625,50.472674384765625,50.044940624999995,50.472674384765625C50.052640624999995,50.79046438476563,50.058140625,51.10831438476563,50.062740625,51.42616438476563C50.066040625,51.603154384765624,50.069340624999995,51.78014438476563,50.072740625,51.96250438476562C50.045040625,52.46663438476563,50.016740625,52.750524384765626,49.759740625,53.18165438476562C49.456140625,53.436704384765626,49.173240625,53.64697438476563,48.841940625,53.85890438476562C48.748440625,53.91976438476563,48.654840625,53.98061438476562,48.558540625,54.043324384765626C46.794940624999995,55.15799438476562,44.316540625,56.66549438476562,42.176440625,56.40749438476563C41.002440625,56.14229438476563,39.964270625,55.54219438476562,39.217340625,54.58794438476563C38.945990625,54.11033438476562,38.923830625,53.730644384765625,38.923830625,53.18165438476562C39.039670625,52.83412438476562,39.039670625,52.83412438476562,39.208980625,52.61134438476562C39.303090624999996,52.564294384765624,39.397190625,52.517244384765625,39.494140625,52.46876438476563C39.373570625,52.43586438476562,39.253010625,52.402964384765625,39.128780625,52.369074384765625C36.852770625,51.71471438476563,36.852770625,51.71471438476563,36.214840625,50.75782438476563C36.288590625,50.256344384765626,36.288590625,50.256344384765626,36.500000625,50.044934384765625C36.883870625,50.011174384765624,37.264930625,49.98477438476563,37.649540625,49.96473438476563C37.757700625,49.95858438476562,37.865860624999996,49.95242438476563,37.977300625,49.94607438476562C38.245250625,49.93091438476563,38.513250625,49.91656438476562,38.781250625,49.90235438476562C36.516120625,47.729684384765626,34.250300625,46.07803438476562,31.011299625,45.987030384765625C30.654296625,45.910171384765626,30.654296625,45.910171384765626,30.462150625,45.619445384765626C30.431457325,45.527182384765624,30.400764025,45.43491838476562,30.369140625,45.339859384765624C30.654296625,45.054702784765624,30.654296625,45.054702784765624,31.017425625,45.037994384765625Z" fill="#FBF5D6" fill-opacity="1" style="mix-blend-mode:passthrough"/></g><g><path d="M49.76865625,25.28089706933594C49.90225625,25.521498069335937,49.90225625,25.521498069335937,49.87555625,25.886851069335936C49.75975625,26.23439106933594,49.75975625,26.23439106933594,49.47455625,26.519541069335936C49.19905625,26.54060106933594,49.19905625,26.54060106933594,48.86195625,26.522331069335937C48.737956249999996,26.517641069335937,48.61395625,26.512961069335937,48.48615625,26.50813106933594C48.35365625,26.503071069335938,48.221056250000004,26.498021069335937,48.08445625,26.492811069335936C46.06795625,26.45858106933594,44.43112625,26.961721069335937,42.91597625,28.373061069335936C42.73154625,28.67498106933594,42.73154625,28.67498106933594,42.63081625,28.94337106933594C42.71352625,29.009171069335938,42.796226250000004,29.074971069335938,42.88143625,29.142761069335936C43.95663625,30.040531069335938,44.81840625,31.09042106933594,45.05464625,32.507831069335936C45.11108625,33.543491069335936,45.142216250000004,34.52355106933594,44.76948625,35.50197106933594C44.613626249999996,35.47847106933594,44.45777625,35.45487106933594,44.29719625,35.430671069335936C42.54087625,35.223871069335935,40.96594625,35.41597106933594,39.46680625,36.43207106933593C38.18259625,37.480471069335934,37.59076625,38.81857106933594,37.07026625,40.34967106933594C36.88794625,40.358471069335934,36.70562625,40.367271069335935,36.51777825,40.37637106933594C36.36394325,40.383771069335936,36.36394325,40.383771069335936,36.20700225,40.39137106933594C36.11547325,40.377571069335936,36.02394525,40.363871069335936,35.92964325,40.34967106933594C35.64448675,39.921871069335936,35.64448675,39.921871069335936,35.67122015,39.45687106933594C36.10664925,37.45347106933594,37.44597625,35.82547106933594,39.12985625,34.713371069335935C40.25302625,34.06759106933594,41.31068625,33.76905106933594,42.60408625,33.782121069335936C42.76967625,33.78340106933594,42.93527625,33.784691069335935,43.10588625,33.78602106933594C43.23141625,33.787671069335936,43.35694625,33.78932106933594,43.48628625,33.791031069335936C43.16716625,32.11146106933594,42.56065625,31.114661069335938,41.20503625,30.084001069335937C41.090346249999996,30.016361069335936,40.97566625,29.94873106933594,40.85749625,29.879041069335937C40.63472625,29.656261069335937,40.63472625,29.656261069335937,40.53669625,29.210711069335936C40.75880625,27.958811069335937,41.92095625,26.958171069335936,42.91597625,26.23439106933594C44.77166625,25.114691069335937,47.71925625,23.976721069335937,49.76865625,25.28089706933594Z" fill="#0A3032" fill-opacity="1" style="mix-blend-mode:passthrough"/></g><g><path d="M27.802729375,35.7871093765625C28.132449375,35.7514648465625,28.132449375,35.7514648465625,28.515629375,35.7871093765625C28.738399375,36.0544429765625,28.738399375,36.0544429765625,28.943359375,36.3574219765625C29.032379374999998,36.3938359765625,29.121409375,36.4302499765625,29.213129375,36.4677669765625C29.641329374999998,36.7168319765625,29.750119375,37.0187259765625,29.964799375,37.4612859765625C30.045299375,37.6250459765625,30.125799375,37.7888059765625,30.208739375,37.9575259765625C30.291949375,38.1310859765625,30.375119375,38.304665976562504,30.458249375,38.4782759765625C30.542379375,38.6508159765625,30.626659375,38.8232859765625,30.711109375,38.9956759765625C30.866089375,39.3131059765625,31.020369375,39.6308759765625,31.173719374999997,39.9490959765625C31.291389375,40.1926859765625,31.413519375,40.4342759765625,31.543389375,40.6715959765625C31.579349375,40.7535459765625,31.615299375,40.8354859765625,31.652339375,40.9199259765625C31.562459375,41.1125259765625,31.466639375,41.3023959765625,31.367189375000002,41.4902359765625C31.335239375,42.0014259765625,31.377409375,42.4246859765625,31.509769374999998,42.9160159765625C29.179549375,42.0540459765625,26.871519375,41.1696459765625,24.692749375,39.9664259765625C24.599789375,39.9156259765625,24.506819375,39.8648159765625,24.411039375,39.8124659765625C23.838719375,39.4866059765625,23.400719375,39.1215759765625,22.955078375,38.6386759765625C22.846273375,38.5269259765625,22.737468375,38.4151759765625,22.625366375,38.3000459765625C22.316601375,37.8197459765625,22.340849375,37.4876759765625,22.384765375,36.9277359765625C22.290664375,36.8806859765625,22.196562575,36.8336359765625,22.099609375,36.7851559765625C22.428965375,36.8322059765625,22.758320375,36.8792559765625,23.097656375,36.9277359765625C23.144709375,36.7865859765625,23.191759375,36.6454299765625,23.240229375,36.4999999765625C24.087149375,36.4294239765625,24.087149375,36.4294239765625,24.951169375,36.3574219765625C24.951169375,36.6397269765625,24.951169375,36.9220359765625,24.951169375,37.2128859765625C25.452209375,37.7765559765625,25.891199375,38.0448759765625,26.648739374999998,38.0973159765625C27.189509375,38.0448559765625,27.661349375,37.8314659765625,28.087889375,37.4980459765625C28.362869375,37.0529759765625,28.401989375,36.7358739765625,28.373049375,36.2148439765625C28.184839375,36.1677929765625,27.996639375,36.1207419765625,27.802729375,36.0722659765625C27.802729375,35.9781639765625,27.802729375,35.8840629765625,27.802729375,35.7871093765625Z" fill="#FBF9DB" fill-opacity="1" style="mix-blend-mode:passthrough"/></g><g><path d="M45.05468625,18.67773129296875C45.57620625,18.85157129296875,46.01346625,19.10323429296875,46.48046625,19.39062129296875C46.66953625,19.48771229296875,46.85927625,19.58357529296875,47.05078625,19.67577529296875C47.00372625,19.81693529296875,46.95667625,19.95808529296875,46.90820625,20.10351529296875C46.76705625,20.05646529296875,46.62589625,20.00941529296875,46.48046625,19.96093529296875C46.48046625,19.86683529296875,46.48046625,19.77273529296875,46.48046625,19.67577529296875C46.29226625,19.67577529296875,46.10406625,19.67577529296875,45.91015625,19.67577529296875C45.91015625,19.76987529296875,45.91015625,19.86398529296875,45.91015625,19.96093529296875C45.58079625,20.00798529296875,45.25144625,20.05503529296875,44.91210625,20.10351529296875C45.19441625,20.15056529296875,45.47671625,20.19761529296875,45.76757625,20.24609529296875C45.72052625,20.38724529296875,45.67347625,20.52839529296875,45.62499625,20.67382529296875C45.34269625,20.626775292968752,45.06038625,20.57972529296875,44.76952625,20.531245292968748C44.76952625,20.62534529296875,44.76952625,20.71944529296875,44.76952625,20.81640529296875C45.14593625,20.91050529296875,45.52234625,21.00460529296875,45.91015625,21.10155529296875C45.86310625,21.19566529296875,45.81605625,21.28976529296875,45.76757625,21.38671529296875C46.14398625,21.43376529296875,46.52038625,21.48081529296875,46.90820625,21.52929529296875C46.76705625,21.59986529296875,46.76705625,21.59986529296875,46.62304625,21.67187529296875C46.62469625,21.771485292968748,46.62635625,21.87110529296875,46.62805625,21.97373529296875C46.62934625,22.10349529296875,46.63063625,22.23325529296875,46.63195625,22.36693529296875C46.63361625,22.49596529296875,46.63526625,22.624985292968752,46.63696625,22.75791529296875C46.62304625,23.09765529296875,46.62304625,23.09765529296875,46.48046625,23.38280529296875C46.38636625,23.38280529296875,46.29226625,23.38280529296875,46.19531625,23.38280529296875C46.26588625,23.66511529296875,46.26588625,23.66511529296875,46.33788625,23.95312529296875C45.58707625,24.22491529296875,44.86248625,24.33920529296875,44.07390625,24.44323529296875C43.63204625,24.50745529296875,43.63204625,24.50745529296875,43.25073625,24.67492529296875C42.91601625,24.80859529296875,42.91601625,24.80859529296875,42.34570625,24.80859529296875C42.34570625,24.71448529296875,42.34570625,24.62038529296875,42.34570625,24.52343529296875C42.21188625,24.52567529296875,42.21188625,24.52567529296875,42.07537625,24.52795529296875C41.67240625,24.53387529296875,41.26944625,24.53759529296875,40.86645625,24.54125529296875C40.72603625,24.54364529296875,40.58561625,24.54603529296875,40.44094625,24.54849529296875C40.30677625,24.54941529296875,40.17261625,24.55033529296875,40.03437825,24.55128529296875C39.84846125,24.55352529296875,39.84846125,24.55352529296875,39.65878725,24.55580529296875C39.35156225,24.52343529296875,39.35156225,24.52343529296875,39.06640625,24.23827529296875C39.09412355,23.56843529296875,39.42690825,23.20164529296875,39.85058625,22.70556529296875C39.96674225,22.56808529296875,40.08289625,22.43060529296875,40.20257625,22.28896529296875C40.49218625,21.95702529296875,40.49218625,21.95702529296875,40.63476625,21.81444529296875C40.54544625,21.809115292968748,40.45611625,21.80378529296875,40.36408625,21.79829529296875C40.24756625,21.78892529296875,40.13104625,21.77955529296875,40.01098625,21.76989529296875C39.89519725,21.761625292968752,39.77940825,21.75335529296875,39.66011025,21.74483529296875C39.35156225,21.67187529296875,39.35156225,21.67187529296875,39.06640625,21.24413529296875C39.11757455,20.82199529296875,39.18711025,20.69569529296875,39.49414025,20.38866529296875C39.99038925,20.32446529296875,40.49128625,20.34246529296875,40.99120625,20.344115292968752C41.13034625,20.34181529296875,41.26947625,20.33951529296875,41.41281625,20.33715529296875C41.54569625,20.33705529296875,41.67858625,20.33696529296875,41.81548625,20.33687529296875C41.93761625,20.33644529296875,42.05974625,20.33602529296875,42.18558625,20.33558529296875C42.33541625,20.36186529296875,42.33541625,20.36186529296875,42.48828625,20.38866529296875C42.77343625,20.81640529296875,42.77343625,20.81640529296875,42.76508625,21.21851529296875C42.60034625,21.77492529296875,42.30724625,22.10640529296875,41.90905625,22.50951529296875C41.84169625,22.58046529296875,41.77433625,22.65140529296875,41.70493625,22.72449529296875C41.53986625,22.89790529296875,41.37268625,23.06928529296875,41.20507625,23.240235292968748C41.58148625,23.240235292968748,41.95788625,23.240235292968748,42.34570625,23.240235292968748C42.36922625,23.14906529296875,42.39275625,23.057905292968748,42.41699625,22.96398529296875C42.63085625,22.66991529296875,42.63085625,22.66991529296875,42.90376625,22.60030529296875C43.19201625,22.56617529296875,43.48182625,22.54602529296875,43.77148625,22.52734529296875C43.77148625,22.62144529296875,43.77148625,22.71554529296875,43.77148625,22.812495292968748C43.91263625,22.812495292968748,44.05378625,22.812495292968748,44.19921625,22.812495292968748C44.19921625,22.62429529296875,44.19921625,22.43609529296875,44.19921625,22.24218529296875C44.01101625,22.24218529296875,43.82281625,22.24218529296875,43.62890625,22.24218529296875C43.62890625,21.91282529296875,43.62890625,21.58347529296875,43.62890625,21.24413529296875C43.487756250000004,21.19708529296875,43.34660625,21.15003529296875,43.20117625,21.10155529296875C43.20117625,20.96040529296875,43.20117625,20.81925529296875,43.20117625,20.67382529296875C43.15412625,20.53267529296875,43.10706625,20.39151529296875,43.05859625,20.24609529296875C42.91744625,20.29314529296875,42.77628625,20.34019529296875,42.63085625,20.38866529296875C42.536756249999996,20.29456529296875,42.44265625,20.20046529296875,42.34570625,20.10351529296875C42.62800625,20.00941529296875,42.91031625,19.91530529296875,43.20117625,19.81835529296875C43.214406249999996,19.65955529296875,43.214406249999996,19.65955529296875,43.227906250000004,19.49755529296875C43.51455625,18.52735359296875,44.16668625,18.45573129296875,45.05468625,18.67773129296875Z" fill="#FDB669" fill-opacity="1" style="mix-blend-mode:passthrough"/></g><g><path d="M36.75839203125,33.63060760757813C36.87887203125,33.63005622757812,36.99934203125,33.629504851578126,37.12347203125,33.628936767578125C37.29702203125,33.62921245557813,37.29702203125,33.62921245557813,37.47407203125,33.62949371357813C37.57806203125,33.629654531578126,37.68205203125,33.629815349578124,37.78920203125,33.629981037578126C38.06833203125,33.64842986757812,38.06833203125,33.64842986757812,38.49606203125,33.79100776757812C38.63864203125,34.21874276757813,38.63864203125,34.21874276757813,38.49551203125,34.599693767578124C37.82345203125,35.92696676757812,37.82345203125,35.92696676757812,37.36435203125,36.410876767578124C35.94700203125,37.96848676757813,35.48535203125,40.234886767578125,34.93161203125,42.20311676757812C34.57873203125,42.27369676757812,34.57873203125,42.27369676757812,34.21872203125,42.345696767578126C34.20475203125,42.25967676757813,34.19078203125,42.173666767578126,34.17639203125,42.08504676757813C34.15507203125,41.971096767578125,34.13375203125,41.85714676757813,34.11179203125,41.73973676757812C34.09194203125,41.627256767578125,34.07209203125,41.51477676757813,34.05164203125,41.39888676757813C33.95610203125,41.043376767578124,33.95610203125,41.043376767578124,33.65620203125,40.80399676757813C33.31919203125,40.44527676757812,33.23790203125,40.20324676757812,33.12042503125,39.72916676757812C33.08366603125,39.58433676757812,33.04690803125,39.43950676757812,33.00903603125,39.290286767578124C32.95500103125,39.064776767578124,32.95500103125,39.064776767578124,32.89987403125,38.834706767578126C32.86164503125,38.683266767578125,32.82341703125,38.53181676757812,32.78403003125,38.37578676757813C32.50778403125,37.26798676757812,32.50778403125,37.26798676757812,32.50778403125,36.92772676757812C32.59379903125,36.91541676757812,32.67981403125,36.90309676757813,32.76843503125,36.89040676757813C33.53764203125,36.756666767578125,33.53764203125,36.756666767578125,34.14743203125,36.286126767578125C34.477342031250004,35.736276767578126,34.51787203125,35.432906767578125,34.50388203125,34.789056767578124C34.31567203125,34.789056767578124,34.12747203125,34.789056767578124,33.93356203125,34.789056767578124C33.86887203125,34.92432676757812,33.80417203125,35.05959676757813,33.73752203125,35.19896676757813C33.50583203125,35.64452676757813,33.50583203125,35.64452676757813,33.22067203125,35.92967676757812C32.42677403125,35.84866676757812,32.42677403125,35.84866676757812,32.22262823125,35.64452676757813C32.15548253125,34.73805676757812,32.15548253125,34.73805676757812,32.39249703125,34.414787767578126C32.71540803125,34.169290767578126,32.99750403125,34.087802767578125,33.38998203125,33.98705276757813C33.58269203125,33.935774767578124,33.58269203125,33.935774767578124,33.77929203125,33.88346076757813C34.77754203125,33.67343596757812,35.74206203125,33.62584725757812,36.75839203125,33.63060760757813Z" fill="#F9F7DA" fill-opacity="1" style="mix-blend-mode:passthrough"/></g><g><path d="M31.412853124999998,23.1689453125C31.960723125,23.2711703125,32.251933125,23.5909663125,32.623653125,23.9798583125C32.698273125,24.0564763125,32.772893125,24.1330953125,32.849773125,24.2120353125C34.038753125,25.4744053125,34.911003125,27.0072853125,35.332643125,28.6938453125C35.818723125,29.819515312500002,37.142543125,30.3514853125,38.210933125,30.7968753125C38.628433125,30.9211953125,39.042503124999996,31.028595312500002,39.468503125,31.119345312500002C39.779303125,31.2246053125,39.779303125,31.2246053125,40.064403125,31.6523453125C40.037703125,32.0176953125,40.037703125,32.0176953125,39.921903125,32.3652353125C39.389303125,32.7202553125,39.179303125000004,32.6701553125,38.570163125,32.583555312499996C36.648153125,32.1782953125,34.827553125,30.9205653125,33.648433125,29.3710953125C33.457003125,28.9096353125,33.332073125,28.4626653125,33.214573125,27.9776153125C32.965193125,27.1368453125,32.464183125,26.3254453125,31.835583125,25.7097353125C31.652343125,25.5214853125,31.652343125,25.5214853125,31.652343125,25.2363253125C31.558243125,25.2363253125,31.464143125,25.2363253125,31.367183125,25.2363253125C31.327853125,25.3572653125,31.288523125,25.4781953125,31.248003125,25.6027953125C31.079953125,26.0979053125,30.896783125,26.5845653125,30.707763125,27.0720253125C30.644173125000002,27.2363353125,30.580583125,27.4006453125,30.515063125,27.5699353125C30.466903125,27.6938053125,30.418753125,27.8176853125,30.369143125,27.9453153125C29.804533125,27.9453153125,29.239922125,27.9453153125,28.658203125,27.9453153125C30.023663125,23.4683003125,30.023663125,23.4683003125,31.412853124999998,23.1689453125Z" fill="#0A3334" fill-opacity="1" style="mix-blend-mode:passthrough"/></g><g><path d="M49.617228125,50.330078125C49.758328125,50.377128925,49.899528125,50.424179725,50.044928125,50.472656125C50.052628125,50.790448125,50.058128124999996,51.108294125,50.062728125,51.426148125C50.066028125,51.603138125,50.069328125,51.780128125,50.072728125,51.962488125C50.045028125,52.466618125,50.016728125,52.750518125,49.759728125,53.181638125C49.456128125,53.436688125,49.173228125,53.646958125,48.841918125,53.858888125C48.748388125,53.919748125,48.654868125,53.980608125,48.558508125,54.043308125C46.794978125,55.157998125,44.316498125,56.665478125,42.176388125,56.407468125C40.999358125,56.141588125,39.970768125,55.540248125,39.216225125,54.590158125C38.957737625,54.127958125,38.942234525,53.706228125,38.923828125,53.181638125C38.941472025,53.272798125,38.959115825,53.363958124999996,38.977294925,53.457888125C39.006702125,53.554928125,39.036108125,53.651968124999996,39.066406125,53.751958125C39.160508125,53.799008125,39.254609125,53.846058125,39.351562125,53.894528125C39.398613125,54.035688125,39.445664125,54.176838125,39.494140125,54.322268125C42.264898125,54.452368125,44.785288125,53.780638125,47.197328125,52.422978125C47.623458125,52.183558125,48.002998125,52.011778125,48.476558125,51.898438125C48.659688125,51.615598125,48.659688125,51.615598125,48.761718125,51.328125125C48.855818125,51.328125125,48.949928125,51.328125125,49.046828125,51.328125125C49.046828125,51.234023125,49.046828125,51.139922125,49.046828125,51.042969125C49.188028125,50.948867125,49.329228125,50.854766125,49.474628125,50.757812125C49.521628125,50.616660125,49.568728125,50.475508125,49.617228125,50.330078125Z" fill="#FACB8E" fill-opacity="1" style="mix-blend-mode:passthrough"/></g><g><path d="M45.767576875,35.92969714257813C45.720526875,36.11790114257813,45.673476875,36.30610114257812,45.624996875,36.500011142578124C45.495796874999996,36.49505114257813,45.366586875,36.49008114257813,45.233466875,36.484971142578125C43.909006875,36.45554114257813,42.736336875,36.47036114257813,41.708556875,37.403931142578124C41.321206875,37.82389114257813,40.979216875,38.279561142578125,40.638666875,38.73782114257813C40.224656875,39.20846114257812,39.871826875,39.463141142578124,39.244076875,39.545951142578126C39.111926875,39.54356114257813,38.979776875,39.54117114257812,38.843626875,39.53871114257812C38.711116875,39.53815114257812,38.578596875,39.537601142578126,38.442069875,39.53703114257812C38.063243875,39.49356114257812,37.823908875,39.40144114257812,37.498046875,39.20899114257813C37.574375675,38.56666114257813,37.820199875,38.18314114257812,38.202025875,37.667371142578126C38.303295875,37.528241142578125,38.404565875,37.38911114257812,38.508906875,37.245761142578125C38.598776875,37.14081114257812,38.688656875,37.035871142578124,38.781246875,36.92774114257813C38.875346875,36.92774114257813,38.969456875,36.92774114257813,39.066406875,36.92774114257813C39.113456875,36.786591142578125,39.160506875,36.64544114257812,39.208986875,36.500011142578124C41.018216875,35.09648494257812,43.768656875,34.59708514257812,45.767576875,35.92969714257813Z" fill="#F7F4DD" fill-opacity="1" style="mix-blend-mode:passthrough"/></g><g><path d="M28.64929625,35.395028322265624C28.92356625,35.76073132226563,29.09208625,36.06590032226563,29.22851625,36.500010322265624C28.67602625,36.25050032226562,28.67602625,36.25050032226562,28.51562625,35.929700322265624C28.15528625,35.83622932226562,28.15528625,35.83622932226562,27.80273625,35.78711832226563C27.80273625,35.88122032226563,27.80273625,35.975320322265624,27.80273625,36.072270322265624C28.15561625,36.14285032226562,28.15561625,36.14285032226562,28.51562625,36.214850322265626C28.48032625,36.81501032226563,28.43278625,37.13823032226563,28.05224625,37.61390032226562C27.46602625,38.08021032226563,27.15070625,38.210950322265624,26.39477625,38.210950322265624C25.80265625,38.11639032226562,25.43705625,37.846540322265625,24.98681625,37.46464032226562C24.75097625,37.13152032226562,24.77603625,36.89884032226563,24.80859625,36.500010322265624C24.55006625,36.51619032226562,24.29165625,36.53439032226562,24.033326250000002,36.55348032226563C23.88941625,36.56340032226562,23.74550625,36.57332032226562,23.59723625,36.58355032226562C23.47942625,36.603030322265624,23.36161625,36.622510322265626,23.24023625,36.642590322265626C23.19318625,36.73669032226562,23.14613625,36.83079032226563,23.09765625,36.92774032226563C22.86240625,36.92774032226563,22.62714625,36.92774032226563,22.38476625,36.92774032226563C22.44892625,37.729800322265625,22.62492625,38.156040322265625,23.09765625,38.781260322265624C22.48927625,38.54352032226562,22.08786625,38.103880322265624,21.63623025,37.64954032226562C21.55719925,37.572810322265624,21.47816925,37.49608032226563,21.39674425,37.41702032226563C21.19440525,37.21493032226562,21.00440725,37.000660322265624,20.81640625,36.785160322265625C20.81640625,36.64401032226562,20.81640625,36.502860322265626,20.81640625,36.35743032226563C22.015776250000002,35.918670322265626,23.22153625,35.610668322265624,24.47432625,35.370766322265624C24.76566625,35.31451432226562,25.05622625,35.25502632226563,25.34688625,35.19536332226563C27.76238625,34.71569632226562,27.76238625,34.71569632226562,28.64929625,35.395028322265624Z" fill="#FAF5D7" fill-opacity="1" style="mix-blend-mode:passthrough"/></g><g><path d="M31.36719125,25.236328125C31.461291250000002,25.236328125,31.55539125,25.236328125,31.65234125,25.236328125C32.57026125,26.302168125,33.32245125,27.517198125,33.68408125,28.880978125C34.15745125,30.372108125,35.77736125,31.250328125,37.07473125,31.951428125C37.26133125,32.046018125,37.45053125,32.135328125,37.64063125,32.222658125C37.64063125,32.410858125,37.64063125,32.599058125,37.64063125,32.792968125C36.29971125,32.689818125,35.39225125,31.866318125,34.44710125,30.988468125C32.79714125,29.502018125,31.242831250000002,28.772698124999998,29.03247125,28.782958125C28.91484125,28.782408125,28.79722125,28.781858125,28.676021249999998,28.781288125C27.98966125,28.782378125,27.33888125,28.828438124999998,26.66210925,28.943358125C26.61505835,28.708108125,26.56800785,28.472848125,26.51953125,28.230468125C27.39710325,27.972478125,28.17420125,27.909288125,29.08594125,27.927488125C29.21000125,27.928778125,29.33406125,27.930068125,29.46187125,27.931388124999998C29.76431125,27.934708125,30.06673125,27.939828125,30.36914125,27.945308125C30.39340125,27.845328125,30.417661250000002,27.745348125,30.44266125,27.642338125000002C30.66466125,26.773218125,30.93661125,26.023244125,31.36719125,25.236328125Z" fill="#F5F1D5" fill-opacity="1" style="mix-blend-mode:passthrough"/></g><g><path d="M34.36133125,20.388671875C34.83183125,20.388671875,35.30234125,20.388671875,35.78711125,20.388671875C35.78711125,20.765077875,35.78711125,21.141484875,35.78711125,21.529291875C35.98560125,21.516061875,35.98560125,21.516061875,36.18811125,21.502561875C36.64258125,21.529291875,36.64258125,21.529291875,36.90991125,21.689701875C37.14567125,22.082631875,37.12644125,22.363481875,37.07031125,22.812501875C36.80605125,23.177431875,36.65148125,23.237271875,36.21484125,23.382811875C36.04016125,23.811751875,36.04016125,23.811751875,35.92969125,24.238281875C35.83558125,24.238281875,35.74148125,24.238281875,35.64453125,24.238281875C35.91906125,24.555321875,35.91906125,24.555321875,36.35742125,24.666011875C36.35742125,24.713061875,36.35742125,24.760121875,36.35742125,24.808591875C36.24917125,24.803631875,36.14091125,24.798671875,36.02938125,24.793551875C35.816821250000004,24.787771875,35.816821250000004,24.787771875,35.59997125,24.781861875C35.459371250000004,24.776901875,35.31877125,24.771931875,35.17391125,24.766821874999998C34.78759125,24.775951875,34.78759125,24.775951875,34.53064125,25.000181875C34.31157125,25.305731875,34.26859125,25.580361875,34.21875125,25.949221875C34.40695125,25.855121875000002,34.59515125,25.761011875,34.78906125,25.664061875C34.86073125,25.966951875,34.93193125,26.269951875,35.00293125,26.573001875C35.04263125,26.741721875,35.08233125,26.910441875,35.12323125,27.084271875C35.21680125,27.517581875,35.21680125,27.517581875,35.21680125,27.802731875C35.31090125,27.802731875,35.40500125,27.802731875,35.50195125,27.802731875C35.50195125,28.226191874999998,35.50195125,28.649651875,35.50195125,29.085941875C35.21680125,28.943361875,35.21680125,28.943361875,35.12546125,28.677691875C35.09678125,28.562461875,35.06811125,28.447221875,35.03857125,28.328491875C34.50152125,26.448801875,33.36229125,24.587531875,31.79492225,23.382811875C31.41849225,23.274951875,31.41849225,23.274951875,31.08203125,23.240231875C31.08203125,23.193181875,31.08203125,23.146131875000002,31.08203125,23.097651875C31.61097725,23.056621875,32.12285125,23.033141875,32.65039125,23.097651875C33.03357125,23.454101875,33.03357125,23.454101875,33.22070125,23.810551875C33.52992125,23.738401875,33.79097125,23.667991875,34.07617125,23.525391875C33.93796125,23.451871875000002,33.79975125,23.378361875,33.65735125,23.302611875C33.22070125,22.955081875,33.22070125,22.955081875,33.07812125,22.447141875C33.07812125,21.957031875,33.07812125,21.957031875,33.36328125,21.529291875C33.88013125,21.502561875,33.88013125,21.502561875,34.36133125,21.529291875C34.36133125,21.152890875,34.36133125,20.776484875,34.36133125,20.388671875Z" fill="#EDBF81" fill-opacity="1" style="mix-blend-mode:passthrough"/></g><g><path d="M40.56960625,20.34272241785156C40.70873625,20.34318189785156,40.84786625,20.34364137785156,40.99120625,20.344114777851562C41.13034625,20.341817377851562,41.26947625,20.339519977851563,41.41281625,20.33715295785156C41.54569625,20.337061057851564,41.67858625,20.336969167851564,41.81548625,20.336874487851563C41.93761625,20.336449466851562,42.05974625,20.336024446851564,42.18558625,20.335586547851562C42.33541625,20.361863047851564,42.33541625,20.361863047851564,42.48828625,20.388670447851563C42.77343625,20.816404547851562,42.77343625,20.816404547851562,42.76508625,21.218519547851564C42.60034625,21.774926547851564,42.30724625,22.106406547851563,41.90905625,22.50951654785156C41.84169625,22.580466547851564,41.77433625,22.65140654785156,41.70493625,22.72449654785156C41.53986625,22.897906547851562,41.37268625,23.06928654785156,41.20507625,23.240236547851563C41.29439625,23.24721654785156,41.38372625,23.254196547851564,41.47575625,23.26139654785156C41.59227625,23.272056547851562,41.70880625,23.282716547851564,41.82885625,23.293696547851564C41.94464625,23.30362654785156,42.06043625,23.313546547851562,42.17973625,23.323776547851562C42.48828625,23.382806547851562,42.48828625,23.382806547851562,42.77343625,23.667966547851563C42.69422625,24.317486547851562,42.69422625,24.317486547851562,42.48828625,24.523436547851563C41.96943625,24.559306547851563,41.44876625,24.549846547851562,40.92883625,24.55016654785156C40.78225625,24.55191654785156,40.63568625,24.553666547851563,40.484666250000004,24.555456547851563C40.27473625,24.55587654785156,40.27473625,24.55587654785156,40.06055425,24.556296547851563C39.86703825,24.55717654785156,39.86703825,24.55717654785156,39.66961325,24.558066547851563C39.35156225,24.523436547851563,39.35156225,24.523436547851563,39.06640625,24.238276547851562C39.09412385,23.56843654785156,39.42690825,23.201646547851563,39.85058625,22.70556654785156C39.96674225,22.568086547851564,40.08289625,22.430616547851564,40.20257625,22.28896654785156C40.49218625,21.957026547851562,40.49218625,21.957026547851562,40.63476625,21.814456547851563C40.54544625,21.809126547851562,40.45611625,21.80379654785156,40.36408625,21.798296547851564C40.24756625,21.788926547851563,40.13104625,21.779556547851563,40.01098625,21.769896547851562C39.89519725,21.761626547851563,39.77940825,21.753356547851563,39.66011025,21.744836547851563C39.35156225,21.67187654785156,39.35156225,21.67187654785156,39.06640625,21.244139547851564C39.18162125,20.293611447851564,39.76224025,20.34886414785156,40.56960625,20.34272241785156Z" fill="#0C3431" fill-opacity="1" style="mix-blend-mode:passthrough"/></g><g><path d="M22.38480506640625,26.234375C23.51879806640625,26.723887,24.48964806640625,27.368605,25.37894806640625,28.230465C25.42599806640625,28.371625,25.47304806640625,28.512775,25.52152806640625,28.658205C25.41124806640625,28.717015,25.300978066406252,28.775835,25.18735806640625,28.836425C23.61178806640625,29.710005,22.67067806640625,30.640015,21.81449306640625,32.222655C21.01528406640625,30.910805,21.61737206640625,28.785825,21.95707106640625,27.374995C22.08015306640625,26.979141,22.21849706640625,26.614509,22.38480506640625,26.234375Z" fill="#F2C992" fill-opacity="1" style="mix-blend-mode:passthrough"/></g><g><path d="M42.488281375,28.943359375C43.754904375,29.697303375,44.534874375,30.805789375,45.001224375,32.204829375C45.192134375,33.286689375,45.161684375,34.472539375,44.769534375,35.501949375C44.299024375,35.407849375,43.828514375,35.313749375,43.343754375,35.216799375C43.353674375,34.992109375,43.353674375,34.992109375,43.363804375,34.762889375C43.411864375,33.229189375,43.290814375,32.224729375,42.256591375,31.028569375C42.172415375,30.939239375,42.088238375,30.849919375,42.001510375,30.757889375C41.775390375,30.511719375,41.775390375,30.511719375,41.490234375,30.083979375C41.601980375,30.001649375,41.713725375,29.919306375,41.828857375,29.834472375C42.174676375,29.538056375,42.325306375,29.358204375,42.488281375,28.943359375Z" fill="#6F1B29" fill-opacity="1" style="mix-blend-mode:passthrough"/></g><g><path d="M28.373045,19.248046875C28.319585,19.595580875,28.319585,19.595580875,28.230465,19.960937875C28.089315,20.031513875,28.089315,20.031513875,27.945315,20.103515875C27.945315,20.150566875,27.945315,20.197616875,27.945315,20.246093875C27.710055,20.246093875,27.474805,20.246093875,27.232425,20.246093875C27.326525,20.293146875,27.420625,20.340196875,27.517575,20.388666875C27.470525,20.718026875,27.423475,21.047386875,27.375005,21.386716875C27.280895,21.386716875,27.186795,21.386716875,27.089845,21.386716875C27.054555,21.501406875,27.019265,21.616086875,26.982915,21.734256875C26.804685,22.099606875,26.804685,22.099606875,26.501705,22.215456875C26.413485,22.224276875,26.325265,22.233096875,26.234375,22.242186875C26.234375,22.383336875,26.234375,22.524496875,26.234375,22.669926875C26.516675,22.669926875,26.798985000000002,22.669926875,27.089845,22.669926875C27.387925,23.154306875,27.435025,23.531476875,27.375005,24.095706875C27.205685,24.363036875,27.205685,24.363036875,26.947265,24.523436875C26.608645,24.594726875,26.608645,24.594726875,26.234375,24.523436875C25.773285,24.167146875,25.557195,23.922146875,25.378905,23.364986875C25.378905,22.955076875,25.378905,22.955076875,25.583865,22.687746875000002C25.657375000000002,22.634816875,25.730895,22.581876875,25.806645,22.527346875C25.712535,22.480296875,25.618435,22.433246875000002,25.521485,22.384766875C25.662635,22.337716874999998,25.803785,22.290666875,25.949215,22.242186875C25.902165,22.148086875,25.855115,22.053986875,25.806645,21.957026875C25.571385,21.957026875,25.336135,21.957026875,25.093745,21.957026875C25.093745,22.098186875,25.093745,22.239336875,25.093745,22.384766875C24.764038,22.482786875,24.764038,22.482786875,24.380859,22.527346875C24.143044,22.316256875,24.143044,22.316256875,23.953125,22.099606875C27.346485,19.248046875,27.346485,19.248046875,28.373045,19.248046875Z" fill="#F4B970" fill-opacity="1" style="mix-blend-mode:passthrough"/></g><g><path d="M44.626953125,21.38671875C45.379763125,21.43376955,46.132583125,21.48082035,46.908203125,21.52929675C46.767053125000004,21.59987275,46.767053125000004,21.59987275,46.623043125,21.67187475C46.624703124999996,21.77149075,46.626353125,21.87110575,46.628063125,21.97373975C46.629343125,22.10349675,46.630633125,22.23325375,46.631953125,22.36694375C46.633613125,22.49596875,46.635263125,22.62498875,46.636973125,22.75791875C46.623043125,23.09765875,46.623043125,23.09765875,46.480473125,23.38280875C46.386363125,23.38280875,46.292263125,23.38280875,46.195313125,23.38280875C46.242363125,23.57101875,46.289413125,23.75921875,46.337893125,23.95312875C45.587073125,24.22491875,44.862483125,24.33920875,44.073903125,24.44323875C43.632043125,24.50745875,43.632043125,24.50745875,43.250740125,24.67492875C42.916015125,24.80859875,42.916015125,24.80859875,42.345703125,24.80859875C42.395694625,24.729198750000002,42.445686025,24.64979875,42.497192125,24.56798875C42.663920125,24.15672875,42.596798125,23.94860875,42.488281125,23.52538875C42.488281125,23.09765875,42.488281125,23.09765875,42.630859125,22.81249875C42.677910125,22.859548750000002,42.724961125,22.90659875,42.773437125,22.95507875C42.899886125,22.94625875,43.026335125,22.93743875,43.156616125,22.92834875C43.746613125,22.96173875,44.006413125,23.19289875,44.484373125,23.52538875C44.672573125,23.52538875,44.860783125,23.52538875,45.054683125,23.52538875C45.007633125,23.38423875,44.960583125,23.24308875,44.912113125,23.09765875C44.818003125,23.09765875,44.723903125,23.09765875,44.626953125,23.09765875C44.626953125,22.53304875,44.626953125,21.96843775,44.626953125,21.38671875Z" fill="#F5BC76" fill-opacity="1" style="mix-blend-mode:passthrough"/></g><g><path d="M33.50587814453125,40.49218444921875C34.004048144531254,40.92808944921875,34.19134814453125,41.19411844921875,34.30787814453125,41.84667544921875C34.21888814453125,42.34499544921875,34.09856814453125,42.66242544921875,33.74647814453125,43.03352544921875C33.27510814453125,43.36195544921875,32.78464814453125,43.42275544921875,32.22266814453125,43.34374544921875C31.77714314453125,43.10662544921875,31.45334714453125,42.803145449218746,31.22462444453125,42.34569544921875C31.16572824453125,41.68311544921875,31.23967094453125,41.30387344921875,31.65235914453125,40.77734044921875C32.23716814453125,40.27607464921875,32.79707814453125,40.23639044921875,33.50587814453125,40.49218444921875Z" fill="#0C3233" fill-opacity="1" style="mix-blend-mode:passthrough"/></g><g><path d="M34.789063125,20.53125C35.234623125,20.5847168,35.234623125,20.5847168,35.644533125,20.673828C35.644533125,21.050234,35.644533125,21.426641,35.644533125,21.81445C35.803323125,21.80857,35.962123125,21.80269,36.125733125,21.79663C36.642583125,21.81445,36.642583125,21.81445,36.927733125,22.09961C36.848523125,22.74913,36.848523125,22.74913,36.642583125,22.95508C36.309943125000004,22.96091,35.977163125,22.96113,35.644533125,22.95508C35.650413125,23.1374,35.656293125,23.31972,35.662353125,23.50757C35.672383125,23.81834,35.672383125,23.81834,35.644533125,24.0957C35.550433125,24.18981,35.456333125,24.28391,35.359373125,24.38086C34.994023125,24.34522,34.994023125,24.34522,34.646483125,24.23828C34.435703125,23.81673,34.495303125,23.41956,34.503903125,22.95508C34.174551125,22.95508,33.845195125000004,22.95508,33.505859125,22.95508C33.345459125,22.62537,33.345459125,22.62537,33.220703125,22.24219C33.314804625,22.10104,33.408906125,21.95988,33.505859125,21.81445C34.022705125,21.78772,34.022705125,21.78772,34.503903125,21.81445C34.498023125,21.65566,34.492143125,21.49686,34.486083125,21.333252C34.503903125,20.816406,34.503903125,20.816406,34.789063125,20.53125Z" fill="#0F322F" fill-opacity="1" style="mix-blend-mode:passthrough"/></g><g><path d="M20.5312407421875,26.091796875C20.7087007421875,26.624183875,20.6125507421875,26.869056875,20.4777707421875,27.410646875C20.2948707421875,28.184746875000002,20.2314207421875,28.852936875,20.2282607421875,29.647336875C20.1840607421875,30.557556875,20.1840607421875,30.557556875,19.8400707421875,30.970646875C19.5064607421875,31.215696875,19.5064607421875,31.215696875,19.1578107421875,31.429566875C18.6280317421875,31.779256875,18.3112847421875,32.269886875,17.9648298421875,32.792966875C17.7748587421875,32.223056875,17.9389305421875,31.823226875,18.1074077421875,31.269166875C18.1558257421875,31.108406875,18.1558257421875,31.108406875,18.2052217421875,30.944396875C18.7496197421875,29.198016875,19.4826507421875,27.596156875,20.5312407421875,26.091796875Z" fill="#E4B478" fill-opacity="1" style="mix-blend-mode:passthrough"/></g><g><path d="M27.80269978515625,36.072265625C28.155589785156252,36.142841825,28.155589785156252,36.142841825,28.51558978515625,36.214843625C28.480289785156252,36.815005625,28.43274978515625,37.138215625,28.05221978515625,37.613895625C27.46598978515625,38.080205625,27.15067978515625,38.210935625,26.39474978515625,38.210935625C25.71426078515625,38.102265625,25.23016778515625,37.751825625,24.80856328515625,37.212885625C24.74618528515625,36.802978625,24.74618528515625,36.802978625,24.80856328515625,36.499999625C24.99676678515625,36.405898625,25.18496978515625,36.311796625,25.37887578515625,36.214843625C25.47591778515625,36.332470625,25.57295978515625,36.450097625,25.67294278515625,36.571288625C26.06718978515625,36.971567625,26.06718978515625,36.971567625,26.60860978515625,36.999023625C27.07674978515625,36.967492625,27.07674978515625,36.967492625,27.34823978515625,36.740600625C27.50327978515625,36.520279625,27.65326978515625,36.296424625,27.80269978515625,36.072265625Z" fill="#0C3B3C" fill-opacity="1" style="mix-blend-mode:passthrough"/></g><g><path d="M22.384765625,26.234375C23.277339625,26.640254,24.147825625,27.056634,24.808595625,27.802735C24.808595625,27.896835,24.808595625,27.990935,24.808595625,28.087895C24.569105625,28.287835,24.569105625,28.287835,24.256105625,28.506715C23.856885625,28.786445,23.659325625,28.956325,23.382812625,29.371095C23.288710625,29.371095,23.194609625,29.371095,23.097656625,29.371095C22.469208225,27.289905,22.469208225,27.289905,22.384765625,26.234375Z" fill="#F8F6D5" fill-opacity="1" style="mix-blend-mode:passthrough"/></g><g><path d="M29.513671875,57.173828125C30.469885875,57.374811125,31.403491875,57.623554125,32.338221875,57.907326125C33.991311875,58.385508125,35.668271875,58.509128125,37.382201875,58.501588125C37.561351875,58.501298125,37.740501875,58.501008125,37.925081875000004,58.500718125C39.284881874999996,58.486178125,40.578571875,58.346298125,41.909871875,58.081162125C42.431971875,57.988822125,42.958871875,57.938188125,43.486371875,57.886719125C43.093771875,58.148426125,42.899371875,58.230018125,42.455471875,58.324478125C42.340971875,58.349288125,42.226571875,58.374098125,42.108771875,58.399668125C41.989871875,58.424478125,41.871071875,58.449288125,41.748671875,58.474858125C41.628171875,58.500768125,41.507671875,58.526678125000004,41.383571875,58.553378125C41.086671875,58.617138125,40.789471875000004,58.679768125,40.492171875,58.742188125C40.492171875,58.883338125,40.492171875,59.024488125,40.492171875,59.169918125C40.373871875,59.147228125,40.255571875,59.124528125,40.133671875,59.101138125C39.597171875,59.021478125,39.070031875,58.997928125,38.528951875000004,58.987248125C38.317961875,58.981858125,38.106971875,58.976478125,37.895981875000004,58.971088125C37.565871875,58.963408125,37.235751875,58.955968125,36.905631875,58.948608125C36.585311875,58.941258125,36.265021875,58.933088125,35.944721875,58.924868125C35.845231874999996,58.922928125,35.745731875,58.920998125,35.643211875,58.918998125C34.947741875,58.900868125,34.947741875,58.900868125,34.789061875,58.742188125C34.525451875,58.708878125,34.260831875,58.683298125,33.995971875,58.661988125C33.851691875,58.650038125,33.707421875,58.638098125,33.558771875,58.625788125C33.447211875,58.617148125,33.335641875,58.608508125,33.220701875,58.599608125C33.220701875,58.505508125,33.220701875,58.411408125,33.220701875,58.314448125C33.053081875000004,58.296808125,32.885461875,58.279168125,32.712771875,58.260988125C32.147511875,58.189838125,31.627921875,58.053263125,31.082031875,57.886719125C30.800041875,57.808771125,30.517841875,57.731580125,30.235473875,57.655029125C30.098915875,57.617903125,29.962358875,57.580777125,29.821662875,57.542526125C29.720025875,57.514957125,29.618388875,57.487388125,29.513671875,57.458984125C29.513671875,57.364883125,29.513671875,57.270781225,29.513671875,57.173828125Z" fill="#DA7E5A" fill-opacity="1" style="mix-blend-mode:passthrough"/></g><g><path d="M33.93354333984375,34.646484375C34.16880333984375,34.693535175,34.40405333984375,34.740585975,34.64643333984375,34.789062375C34.71839333984375,35.544552375,34.55593333984375,35.916454375,34.07612333984375,36.500004375C33.54755333984375,36.917294375,33.17397533984375,36.974214375,32.50776533984375,36.927734375C32.20944843984375,36.296004375,32.20944843984375,36.296004375,32.27607633984375,35.885134375C32.30548313984375,35.805734375,32.33488983984375,35.726334375,32.36518733984375,35.644531375C32.78864433984375,35.715104375,32.78864433984375,35.715104375,33.22065633984375,35.787104375C33.50743333984375,35.422121375,33.73799333984375,35.067674375,33.93354333984375,34.646484375Z" fill="#103938" fill-opacity="1" style="mix-blend-mode:passthrough"/></g><g><path d="M27.122706875,26.64820517090625C27.294316875,26.64889439090625,27.294316875,26.64889439090625,27.469406875,26.64959753390625C27.647636875,26.65138950390625,27.647636875,26.65138950390625,27.829466875,26.65321768390625C27.949946875,26.65386095390625,28.070416875,26.65450422390625,28.194546875,26.65516699390625C28.491676875,26.65684572390625,28.788806875,26.65940285390625,29.085936875,26.66212885390625C29.007396875,27.13335425390625,28.931706875,27.54791125390625,28.658206875,27.94533025390625C28.234836875,28.11252025390625,27.826066875,28.13490025390625,27.374996875,28.08791025390625C26.973998875,27.77602025390625,26.973998875,27.77602025390625,26.662108875,27.37501925390625C26.553304875,27.26621425390625,26.444499874999998,27.15740925390625,26.332397875,27.045307253906252C26.252998875,26.96590925390625,26.173601075,26.88651125390625,26.091796875,26.80470725390625C26.486118875,26.67326635390625,26.716693875,26.64532566390625,27.122706875,26.64820517090625Z" fill="#5F1C29" fill-opacity="1" style="mix-blend-mode:passthrough"/></g><g><path d="M37.337649375,15.505350775507813C37.512939375,15.506315685507813,37.688229375,15.507280595507812,37.868829375,15.508274745507812C39.917459375,15.531597695507813,41.799919375,15.862767895507812,43.771459375,16.39646389550781C43.326389375,16.53428289550781,42.984329375,16.537602895507813,42.523929375,16.476663895507812C42.352999374999996,16.454884895507814,42.352999374999996,16.454884895507814,42.178619375,16.432665895507814C42.092609375,16.42071889550781,42.006589375000004,16.408772895507813,41.917969375,16.39646389550781C41.917969375,16.302362895507812,41.917969375,16.208260895507813,41.917969375,16.111307895507814C40.841679375,15.995398895507812,39.781479375,15.949182895507812,38.699379375,15.954805895507812C38.549689375,15.955007895507812,38.400009374999996,15.955209895507812,38.245789375,15.955416895507813C37.773759375,15.956206895507812,37.301739375,15.957994895507813,36.829709375,15.959818895507812C36.507149375,15.960534895507813,36.184579375,15.961184895507813,35.862019375,15.961767895507812C35.076629375,15.963328895507813,34.291244375,15.965706895507813,33.505859375,15.968729895507813C33.505859375,15.921678895507812,33.505859375,15.874627895507812,33.505859375,15.826151895507813C34.791789375,15.592152295507812,36.031489375,15.494895725507812,37.337649375,15.505350775507813Z" fill="#2F281C" fill-opacity="1" style="mix-blend-mode:passthrough"/></g><g><path d="M26.234374625,22.8125C26.742309625,22.8481445,26.742309625,22.8481445,27.232420625,22.955078C27.431940625,23.354112,27.411020625,23.654422,27.375000625,24.0957C27.205690625,24.36304,27.205690625,24.36304,26.947270625,24.52344C26.590820625,24.58582,26.590820625,24.58582,26.234374625,24.52344C25.967040625,24.29175,25.967040625,24.29175,25.806640625,23.95312C25.838061425,23.429444,25.859346825,23.187528,26.234374625,22.8125Z" fill="#10332E" fill-opacity="1" style="mix-blend-mode:passthrough"/></g><g><path d="M41.062504375,56.033203125C41.838834375,56.174355125,41.838834375,56.174355125,42.630864375,56.318359125C42.630864375,56.412461125,42.630864375,56.506562125,42.630864375,56.603515125C42.256704375,56.672529125,41.882434375,56.740718125,41.508054375,56.808472125C41.404394375,56.827678125,41.300734375,56.846884125,41.193944375,56.866672125C39.856524375,57.107173125,38.544314375,57.197273125,37.186154375,57.191653125C36.983944375,57.192473125,36.983944375,57.192473125,36.777634375,57.193323125C36.051774375,57.192313125,35.361781375,57.155903125,34.646484375,57.031250125C34.646484375,56.984199125,34.646484375,56.937148125,34.646484375,56.888672125C34.805545375,56.885099124999996,34.964605375,56.881527125,35.128486375,56.877846125C35.716524375,56.864457125,36.304534375,56.850162125,36.892544375,56.835588125C37.147434375,56.829398125,37.402324375,56.823457125,37.657224375,56.817766125C38.022824375,56.809560125,38.388394375,56.800473125,38.753964375,56.791206125C38.868614375,56.788823125,38.983274375,56.786441125,39.101404375,56.783986125C39.626264375,56.818494125,39.626264375,56.818494125,40.064454375,56.603515125C40.352414375,56.593187125,40.640704375,56.591572125,40.928834375,56.594604125000004C41.165094375,56.596534125,41.165094375,56.596534125,41.406134375,56.598503125C41.527994375,56.600157125,41.649844375,56.601811125,41.775394375,56.603515125C41.775394375,56.509414125,41.775394375,56.415312125,41.775394375,56.318359125C41.422514375,56.247783125,41.422514375,56.247783125,41.062504375,56.175781125C41.062504375,56.128730525,41.062504375,56.081679725,41.062504375,56.033203125Z" fill="#CA3C40" fill-opacity="1" style="mix-blend-mode:passthrough"/></g><g><path d="M58.884765625,33.36328125C59.238834625,33.71735025,59.212497625,33.86356925,59.241210625,34.35241725C59.272172625,34.87799125,59.295518625,35.04875125,59.597656625,35.50195125C59.623728625,35.83069125,59.623728625,35.83069125,59.609352625,36.217071250000004C59.604194625,36.35933125,59.599036625,36.50158125,59.593722625,36.64815125C59.582436625,36.87476125,59.582436625,36.87476125,59.570922625,37.10596125C59.564042625,37.25924125,59.557161625,37.41252125,59.550072625,37.57045125C59.486114625,38.76744125,59.323290625,39.90105125,59.027343625,41.06250125C58.980293025,41.06250125,58.933242225,41.06250125,58.884765625,41.06250125C58.895058025,40.93090125,58.905350325,40.79931125,58.915954625,40.66373125C59.089595625,38.22311125,59.049792625,35.80331125,58.884765625,33.36328125Z" fill="#E07A55" fill-opacity="1" style="mix-blend-mode:passthrough"/></g><g><path d="M30.796874625,26.947265625C31.742530625,27.269190625,32.361420625,27.831423625,33.078120625,28.515625625C32.504950625,28.740855625000002,32.058240625,28.573205625,31.483030625,28.408695625C31.215338625,28.334805625,31.215338625,28.334805625,30.942237625,28.259425625C30.800166625,28.202825625,30.658095625,28.146215625,30.511718625,28.087885625C30.464668025,27.946738625,30.417617225,27.805585625,30.369140625,27.660156625C30.574096625,27.276977625,30.574096625,27.276977625,30.796874625,26.947265625Z" fill="#F1D099" fill-opacity="1" style="mix-blend-mode:passthrough"/></g><g><path d="M45.6161084765625,21.6273193359375C46.0527584765625,21.6718750359375,46.0527584765625,21.6718750359375,46.328998476562504,21.8411863359375C46.4804884765625,22.0996093359375,46.4804884765625,22.0996093359375,46.4626684765625,22.4560543359375C46.3267984765625,22.8442593359375,46.2605084765625,23.0227893359375,45.9101784765625,23.2402393359375C45.4646194765625,23.2134993359375,45.4646194765625,23.2134993359375,45.0547074765625,23.0976593359375C44.8577708765625,22.7037793359375,44.8849259365625,22.3922783359375,44.9121288765625,21.9570313359375C45.1972854765625,21.6718750359375,45.1972854765625,21.6718750359375,45.6161084765625,21.6273193359375Z" fill="#17312A" fill-opacity="1" style="mix-blend-mode:passthrough"/></g><g><path d="M54.892573125,33.791015625C54.986683125,33.791015625,55.080783124999996,33.791015625,55.177733125,33.791015625C55.277473125,34.135165625,55.375183125,34.479682625,55.471803125,34.824705625C55.500193125,34.921935625,55.528593125,35.019155625,55.557853125,35.119335625C55.805093125,36.012875625,55.805093125,36.012875625,55.605473125,36.499995625C55.543343125,36.418945625,55.481223125,36.337895625,55.417223125,36.254385625C54.880323125,35.558285624999996,54.329843125,34.881205625,53.751953125,34.218749625C53.954859125,34.231982625,53.954859125,34.231982625,54.161865125,34.245483625C54.382416125,34.232250625,54.382416125,34.232250625,54.607422125,34.218749625C54.701523125,34.077597625,54.795623125,33.936445625,54.892573125,33.791015625Z" fill="#F2D5A9" fill-opacity="1" style="mix-blend-mode:passthrough"/></g><g><path d="M32.0800530671875,34.50390625C32.2212058671875,34.57448245,32.2212058671875,34.57448245,32.3652088671875,34.64648425C32.3594198671875,34.73840325,32.3536308671875,34.83032225,32.3476658671875,34.92502725C32.3085508671875,36.04557625,32.5342718671875,36.98548625,32.8642328671875,38.05053625C32.9586328671875,38.36180625,33.0522328671875,38.67331625,33.1449338671875,38.98509625C33.1867438671875,39.12070625,33.2285538671875,39.25632625,33.271633867187504,39.39604625C33.3626238671875,39.77664625,33.3805838671875,40.10258625,33.3632538671875,40.49218625C33.0339008671875,40.44513625,32.7045448671875,40.39808625,32.3652088671875,40.34960625C32.4122598671875,40.255506249999996,32.4593108671875,40.16140625,32.5077878671875,40.06445625C32.6959908671875,40.06445625,32.8841938671875,40.06445625,33.0781038671875,40.06445625C32.9854688671875,39.839496249999996,32.9854688671875,39.839496249999996,32.890965867187504,39.60998625C32.6240608671875,38.90666625,32.4719148671875,38.18399625,32.3150838671875,37.44959625C32.2606798671875,37.08366625,32.2606798671875,37.08366625,32.0800530671875,36.92773625C32.0696089341875,36.51957625,32.0668813571875,36.11493625,32.0711418871875,35.70690625C32.0717851571875,35.59194625,32.0724284371875,35.47698525,32.0730911971875,35.35853925C32.0747768971875,35.07365725,32.0773341771875,34.78878025,32.0800530671875,34.50390625Z" fill="#DA6444" fill-opacity="1" style="mix-blend-mode:passthrough"/></g></g></svg>